<svg width="24" height="18" viewBox="0 0 24 18" fill="none" xmlns="http://www.w3.org/2000/svg">
<path d="M7.78125 14.5001H20.4846C20.7991 14.5001 21.0751 14.293 21.1602 13.9922L23.9729 4.1921C24.0333 3.98083 23.9919 3.75388 23.8588 3.57833C23.7255 3.40333 23.5183 3.29998 23.2971 3.29998H6.15802L5.6554 1.04833C5.58398 0.72768 5.29834 0.5 4.96875 0.5H0.703125C0.314575 0.5 0 0.813174 0 1.19999C0 1.587 0.314575 1.89999 0.703125 1.89999H4.40442L6.94354 13.2749C6.19647 13.5983 5.67188 14.3386 5.67188 15.2001C5.67188 16.358 6.61816 17.3 7.78125 17.3H20.4846C20.8733 17.3 21.1877 16.987 21.1877 16.6C21.1877 16.2132 20.8733 15.9 20.4846 15.9H7.78125C7.39398 15.9 7.07813 15.5863 7.07813 15.2001C7.07813 14.8138 7.39398 14.5001 7.78125 14.5001Z" fill="white"/>
</svg>
